<mxfile host="app.diagrams.net" agent="Mozilla/5.0 (Windows NT 10.0; Win64; x64) AppleWebKit/537.36 (KHTML, like Gecko) Chrome/131.0.0.0 Safari/537.36" version="26.0.3">
  <diagram name="Page-1" id="my0lkViZR6sJPGAHv8gz">
    <mxGraphModel dx="928" dy="844" grid="0" gridSize="10" guides="1" tooltips="1" connect="1" arrows="1" fold="1" page="0" pageScale="1" pageWidth="850" pageHeight="1100" math="0" shadow="0">
      <root>
        <mxCell id="0" />
        <mxCell id="1" parent="0" />
        <mxCell id="TdN85WwoN8RoZoPRbgvp-12" value="CoffeeShop&lt;div&gt;&lt;br&gt;&lt;/div&gt;" style="swimlane;fontStyle=1;align=center;verticalAlign=top;childLayout=stackLayout;horizontal=1;startSize=30;horizontalStack=0;resizeParent=1;resizeParentMax=0;resizeLast=0;collapsible=1;marginBottom=0;whiteSpace=wrap;html=1;" vertex="1" parent="1">
          <mxGeometry x="470" y="300" width="160" height="70" as="geometry" />
        </mxCell>
        <mxCell id="TdN85WwoN8RoZoPRbgvp-16" value="Waiter" style="swimlane;fontStyle=1;align=center;verticalAlign=top;childLayout=stackLayout;horizontal=1;startSize=26;horizontalStack=0;resizeParent=1;resizeParentMax=0;resizeLast=0;collapsible=1;marginBottom=0;whiteSpace=wrap;html=1;" vertex="1" parent="1">
          <mxGeometry x="640" y="810" width="160" height="70" as="geometry" />
        </mxCell>
        <mxCell id="TdN85WwoN8RoZoPRbgvp-17" value="&lt;span style=&quot;white-space: pre;&quot;&gt;&#x9;&lt;/span&gt;&lt;span style=&quot;white-space: pre;&quot;&gt;&#x9;&lt;/span&gt;&lt;b&gt;class&lt;/b&gt;" style="text;strokeColor=none;fillColor=none;align=left;verticalAlign=top;spacingLeft=4;spacingRight=4;overflow=hidden;rotatable=0;points=[[0,0.5],[1,0.5]];portConstraint=eastwest;whiteSpace=wrap;html=1;" vertex="1" parent="TdN85WwoN8RoZoPRbgvp-16">
          <mxGeometry y="26" width="160" height="44" as="geometry" />
        </mxCell>
        <mxCell id="TdN85WwoN8RoZoPRbgvp-24" value="SpecialEvent&lt;div&gt;&lt;br&gt;&lt;/div&gt;" style="swimlane;fontStyle=1;align=center;verticalAlign=top;childLayout=stackLayout;horizontal=1;startSize=26;horizontalStack=0;resizeParent=1;resizeParentMax=0;resizeLast=0;collapsible=1;marginBottom=0;whiteSpace=wrap;html=1;" vertex="1" parent="1">
          <mxGeometry x="650" y="580" width="160" height="90" as="geometry" />
        </mxCell>
        <mxCell id="TdN85WwoN8RoZoPRbgvp-82" value="" style="endArrow=classic;html=1;rounded=0;" edge="1" parent="TdN85WwoN8RoZoPRbgvp-24" target="TdN85WwoN8RoZoPRbgvp-32">
          <mxGeometry width="50" height="50" relative="1" as="geometry">
            <mxPoint x="80" y="90" as="sourcePoint" />
            <mxPoint x="130" y="36" as="targetPoint" />
          </mxGeometry>
        </mxCell>
        <mxCell id="TdN85WwoN8RoZoPRbgvp-98" value="vector&amp;lt;ProductsAndServices*&amp;gt; required products" style="edgeLabel;html=1;align=center;verticalAlign=middle;resizable=0;points=[];" vertex="1" connectable="0" parent="TdN85WwoN8RoZoPRbgvp-82">
          <mxGeometry x="-0.0769" y="1" relative="1" as="geometry">
            <mxPoint as="offset" />
          </mxGeometry>
        </mxCell>
        <mxCell id="TdN85WwoN8RoZoPRbgvp-28" value="Order" style="swimlane;fontStyle=1;align=center;verticalAlign=top;childLayout=stackLayout;horizontal=1;startSize=30;horizontalStack=0;resizeParent=1;resizeParentMax=0;resizeLast=0;collapsible=1;marginBottom=0;whiteSpace=wrap;html=1;" vertex="1" parent="1">
          <mxGeometry x="820" y="456" width="160" height="90" as="geometry" />
        </mxCell>
        <mxCell id="TdN85WwoN8RoZoPRbgvp-29" value="&lt;b style=&quot;line-height: 42px;&quot;&gt;&lt;span style=&quot;white-space: pre;&quot;&gt;&#x9;&lt;/span&gt;&lt;span style=&quot;white-space: pre;&quot;&gt;&#x9;&lt;/span&gt;&amp;nbsp;class&lt;/b&gt;" style="text;strokeColor=none;fillColor=none;align=left;verticalAlign=top;spacingLeft=4;spacingRight=4;overflow=hidden;rotatable=0;points=[[0,0.5],[1,0.5]];portConstraint=eastwest;whiteSpace=wrap;html=1;" vertex="1" parent="TdN85WwoN8RoZoPRbgvp-28">
          <mxGeometry y="30" width="160" height="60" as="geometry" />
        </mxCell>
        <mxCell id="TdN85WwoN8RoZoPRbgvp-32" value="&lt;span style=&quot;white-space: pre;&quot;&gt;&#x9;&lt;/span&gt;ProductsAndServices" style="swimlane;fontStyle=1;align=center;verticalAlign=top;childLayout=stackLayout;horizontal=1;startSize=26;horizontalStack=0;resizeParent=1;resizeParentMax=0;resizeLast=0;collapsible=1;marginBottom=0;whiteSpace=wrap;html=1;" vertex="1" parent="1">
          <mxGeometry x="1100" y="750" width="160" height="70" as="geometry" />
        </mxCell>
        <mxCell id="TdN85WwoN8RoZoPRbgvp-35" value="&lt;span style=&quot;white-space: pre;&quot;&gt;&#x9;&lt;/span&gt;&lt;span style=&quot;white-space: pre;&quot;&gt;&#x9;&lt;/span&gt;&lt;b&gt;class&lt;/b&gt;" style="text;strokeColor=none;fillColor=none;align=left;verticalAlign=top;spacingLeft=4;spacingRight=4;overflow=hidden;rotatable=0;points=[[0,0.5],[1,0.5]];portConstraint=eastwest;whiteSpace=wrap;html=1;" vertex="1" parent="TdN85WwoN8RoZoPRbgvp-32">
          <mxGeometry y="26" width="160" height="44" as="geometry" />
        </mxCell>
        <mxCell id="TdN85WwoN8RoZoPRbgvp-36" value="Manager" style="swimlane;fontStyle=1;align=center;verticalAlign=top;childLayout=stackLayout;horizontal=1;startSize=26;horizontalStack=0;resizeParent=1;resizeParentMax=0;resizeLast=0;collapsible=1;marginBottom=0;whiteSpace=wrap;html=1;" vertex="1" parent="1">
          <mxGeometry x="845" y="810" width="160" height="70" as="geometry" />
        </mxCell>
        <mxCell id="TdN85WwoN8RoZoPRbgvp-37" value="&lt;blockquote style=&quot;margin: 0 0 0 40px; border: none; padding: 0px;&quot;&gt;&lt;b&gt;&amp;nbsp; &amp;nbsp; &amp;nbsp;class&lt;/b&gt;&lt;/blockquote&gt;" style="text;strokeColor=none;fillColor=none;align=left;verticalAlign=top;spacingLeft=4;spacingRight=4;overflow=hidden;rotatable=0;points=[[0,0.5],[1,0.5]];portConstraint=eastwest;whiteSpace=wrap;html=1;" vertex="1" parent="TdN85WwoN8RoZoPRbgvp-36">
          <mxGeometry y="26" width="160" height="44" as="geometry" />
        </mxCell>
        <mxCell id="TdN85WwoN8RoZoPRbgvp-40" value="Client" style="swimlane;fontStyle=1;align=center;verticalAlign=top;childLayout=stackLayout;horizontal=1;startSize=26;horizontalStack=0;resizeParent=1;resizeParentMax=0;resizeLast=0;collapsible=1;marginBottom=0;whiteSpace=wrap;html=1;" vertex="1" parent="1">
          <mxGeometry x="1170" y="460" width="160" height="80" as="geometry" />
        </mxCell>
        <mxCell id="TdN85WwoN8RoZoPRbgvp-41" value="&lt;b style=&quot;line-height: 200%;&quot;&gt;&lt;span style=&quot;white-space: pre;&quot;&gt;&#x9;&lt;/span&gt;&lt;span style=&quot;white-space: pre;&quot;&gt;&#x9;&lt;/span&gt;&amp;nbsp;class&lt;/b&gt;" style="text;strokeColor=none;fillColor=none;align=left;verticalAlign=top;spacingLeft=4;spacingRight=4;overflow=hidden;rotatable=0;points=[[0,0.5],[1,0.5]];portConstraint=eastwest;whiteSpace=wrap;html=1;" vertex="1" parent="TdN85WwoN8RoZoPRbgvp-40">
          <mxGeometry y="26" width="160" height="54" as="geometry" />
        </mxCell>
        <mxCell id="TdN85WwoN8RoZoPRbgvp-44" value="DailyReport" style="swimlane;fontStyle=1;align=center;verticalAlign=top;childLayout=stackLayout;horizontal=1;startSize=26;horizontalStack=0;resizeParent=1;resizeParentMax=0;resizeLast=0;collapsible=1;marginBottom=0;whiteSpace=wrap;html=1;" vertex="1" parent="1">
          <mxGeometry x="1180" y="190" width="160" height="80" as="geometry" />
        </mxCell>
        <mxCell id="TdN85WwoN8RoZoPRbgvp-47" value="&lt;b style=&quot;line-height: 310%;&quot;&gt;&lt;span style=&quot;white-space: pre;&quot;&gt;&#x9;&lt;/span&gt;&lt;span style=&quot;white-space: pre;&quot;&gt;&#x9;&lt;/span&gt;class&lt;/b&gt;" style="text;strokeColor=none;fillColor=none;align=left;verticalAlign=top;spacingLeft=4;spacingRight=4;overflow=hidden;rotatable=0;points=[[0,0.5],[1,0.5]];portConstraint=eastwest;whiteSpace=wrap;html=1;" vertex="1" parent="TdN85WwoN8RoZoPRbgvp-44">
          <mxGeometry y="26" width="160" height="54" as="geometry" />
        </mxCell>
        <mxCell id="TdN85WwoN8RoZoPRbgvp-48" value="Employee&amp;nbsp;" style="swimlane;fontStyle=1;align=center;verticalAlign=top;childLayout=stackLayout;horizontal=1;startSize=26;horizontalStack=0;resizeParent=1;resizeParentMax=0;resizeLast=0;collapsible=1;marginBottom=0;whiteSpace=wrap;html=1;" vertex="1" parent="1">
          <mxGeometry x="430" y="570" width="160" height="80" as="geometry" />
        </mxCell>
        <mxCell id="TdN85WwoN8RoZoPRbgvp-52" value="CoffeeShopManager" style="swimlane;fontStyle=1;align=center;verticalAlign=top;childLayout=stackLayout;horizontal=1;startSize=26;horizontalStack=0;resizeParent=1;resizeParentMax=0;resizeLast=0;collapsible=1;marginBottom=0;whiteSpace=wrap;html=1;" vertex="1" parent="1">
          <mxGeometry x="800" y="150" width="160" height="56" as="geometry" />
        </mxCell>
        <mxCell id="TdN85WwoN8RoZoPRbgvp-118" value="&lt;b&gt;class&lt;/b&gt;" style="text;html=1;align=center;verticalAlign=middle;resizable=0;points=[];autosize=1;strokeColor=none;fillColor=none;" vertex="1" parent="TdN85WwoN8RoZoPRbgvp-52">
          <mxGeometry y="26" width="160" height="30" as="geometry" />
        </mxCell>
        <mxCell id="TdN85WwoN8RoZoPRbgvp-56" value="Product" style="swimlane;fontStyle=1;align=center;verticalAlign=top;childLayout=stackLayout;horizontal=1;startSize=26;horizontalStack=0;resizeParent=1;resizeParentMax=0;resizeLast=0;collapsible=1;marginBottom=0;whiteSpace=wrap;html=1;" vertex="1" parent="1">
          <mxGeometry x="1110" y="304" width="160" height="80" as="geometry" />
        </mxCell>
        <mxCell id="TdN85WwoN8RoZoPRbgvp-57" value="&lt;b style=&quot;line-height: 280%;&quot;&gt;&lt;span style=&quot;white-space: pre;&quot;&gt;&#x9;&lt;/span&gt;&lt;span style=&quot;white-space: pre;&quot;&gt;&#x9;&lt;/span&gt;class&lt;/b&gt;&lt;div&gt;&lt;/div&gt;&lt;div&gt;&lt;b&gt;&lt;br&gt;&lt;/b&gt;&lt;/div&gt;" style="text;strokeColor=none;fillColor=none;align=left;verticalAlign=top;spacingLeft=4;spacingRight=4;overflow=hidden;rotatable=0;points=[[0,0.5],[1,0.5]];portConstraint=eastwest;whiteSpace=wrap;html=1;" vertex="1" parent="TdN85WwoN8RoZoPRbgvp-56">
          <mxGeometry y="26" width="160" height="54" as="geometry" />
        </mxCell>
        <mxCell id="TdN85WwoN8RoZoPRbgvp-60" value="Barista" style="swimlane;fontStyle=1;align=center;verticalAlign=top;childLayout=stackLayout;horizontal=1;startSize=26;horizontalStack=0;resizeParent=1;resizeParentMax=0;resizeLast=0;collapsible=1;marginBottom=0;whiteSpace=wrap;html=1;" vertex="1" parent="1">
          <mxGeometry x="440" y="810" width="160" height="70" as="geometry" />
        </mxCell>
        <mxCell id="TdN85WwoN8RoZoPRbgvp-61" value="&lt;b&gt;&lt;span style=&quot;white-space: pre;&quot;&gt;&#x9;&lt;/span&gt;&lt;span style=&quot;white-space: pre;&quot;&gt;&#x9;&lt;/span&gt;class&lt;/b&gt;" style="text;strokeColor=none;fillColor=none;align=left;verticalAlign=top;spacingLeft=4;spacingRight=4;overflow=hidden;rotatable=0;points=[[0,0.5],[1,0.5]];portConstraint=eastwest;whiteSpace=wrap;html=1;" vertex="1" parent="TdN85WwoN8RoZoPRbgvp-60">
          <mxGeometry y="26" width="160" height="44" as="geometry" />
        </mxCell>
        <mxCell id="TdN85WwoN8RoZoPRbgvp-64" value="OrderedProduct" style="swimlane;fontStyle=1;align=center;verticalAlign=top;childLayout=stackLayout;horizontal=1;startSize=26;horizontalStack=0;resizeParent=1;resizeParentMax=0;resizeLast=0;collapsible=1;marginBottom=0;whiteSpace=wrap;html=1;" vertex="1" parent="1">
          <mxGeometry x="1140" y="630" width="160" height="80" as="geometry" />
        </mxCell>
        <mxCell id="TdN85WwoN8RoZoPRbgvp-72" value="" style="edgeStyle=orthogonalEdgeStyle;rounded=0;orthogonalLoop=1;jettySize=auto;html=1;entryX=0;entryY=0.5;entryDx=0;entryDy=0;" edge="1" parent="1" target="TdN85WwoN8RoZoPRbgvp-57">
          <mxGeometry relative="1" as="geometry">
            <mxPoint x="630" y="340" as="sourcePoint" />
          </mxGeometry>
        </mxCell>
        <mxCell id="TdN85WwoN8RoZoPRbgvp-107" value="add_product&lt;div&gt;remove_product&lt;/div&gt;&lt;div&gt;display_products&lt;/div&gt;&lt;div&gt;calculate_acquisitions&lt;/div&gt;" style="edgeLabel;html=1;align=center;verticalAlign=middle;resizable=0;points=[];" vertex="1" connectable="0" parent="TdN85WwoN8RoZoPRbgvp-72">
          <mxGeometry x="0.1483" y="1" relative="1" as="geometry">
            <mxPoint as="offset" />
          </mxGeometry>
        </mxCell>
        <mxCell id="TdN85WwoN8RoZoPRbgvp-77" value="" style="endArrow=classic;html=1;rounded=0;entryX=0.5;entryY=0;entryDx=0;entryDy=0;" edge="1" parent="1" target="TdN85WwoN8RoZoPRbgvp-24">
          <mxGeometry width="50" height="50" relative="1" as="geometry">
            <mxPoint x="550" y="370" as="sourcePoint" />
            <mxPoint x="630" y="480" as="targetPoint" />
          </mxGeometry>
        </mxCell>
        <mxCell id="TdN85WwoN8RoZoPRbgvp-86" value="add_special_ev.&lt;div&gt;remove_sp._ev.&lt;/div&gt;&lt;div&gt;display_sp_ev&lt;/div&gt;&lt;div&gt;calculate_sales_sp_ev&lt;/div&gt;&lt;div&gt;calculate_cost_sp._ev&lt;/div&gt;" style="edgeLabel;html=1;align=center;verticalAlign=middle;resizable=0;points=[];" vertex="1" connectable="0" parent="TdN85WwoN8RoZoPRbgvp-77">
          <mxGeometry x="0.0206" y="3" relative="1" as="geometry">
            <mxPoint as="offset" />
          </mxGeometry>
        </mxCell>
        <mxCell id="TdN85WwoN8RoZoPRbgvp-79" value="" style="endArrow=classic;html=1;rounded=0;entryX=0.5;entryY=0;entryDx=0;entryDy=0;" edge="1" parent="1" target="TdN85WwoN8RoZoPRbgvp-48">
          <mxGeometry width="50" height="50" relative="1" as="geometry">
            <mxPoint x="550" y="370" as="sourcePoint" />
            <mxPoint x="810" y="430" as="targetPoint" />
          </mxGeometry>
        </mxCell>
        <mxCell id="TdN85WwoN8RoZoPRbgvp-94" value="add_employee&lt;div&gt;remove_employee&lt;/div&gt;&lt;div&gt;display_employees&lt;/div&gt;&lt;div&gt;calculate_salary&lt;/div&gt;&lt;div&gt;&lt;br&gt;&lt;/div&gt;" style="edgeLabel;html=1;align=center;verticalAlign=middle;resizable=0;points=[];" vertex="1" connectable="0" parent="TdN85WwoN8RoZoPRbgvp-79">
          <mxGeometry x="0.1056" relative="1" as="geometry">
            <mxPoint as="offset" />
          </mxGeometry>
        </mxCell>
        <mxCell id="TdN85WwoN8RoZoPRbgvp-80" value="" style="endArrow=classic;html=1;rounded=0;entryX=0;entryY=0.25;entryDx=0;entryDy=0;" edge="1" parent="1" target="TdN85WwoN8RoZoPRbgvp-28">
          <mxGeometry width="50" height="50" relative="1" as="geometry">
            <mxPoint x="550" y="370" as="sourcePoint" />
            <mxPoint x="990" y="410" as="targetPoint" />
          </mxGeometry>
        </mxCell>
        <mxCell id="TdN85WwoN8RoZoPRbgvp-85" value="place_order&lt;div&gt;calculate_order_sales&lt;/div&gt;&lt;div&gt;vector&amp;lt;Order*&amp;gt; orders&lt;/div&gt;" style="edgeLabel;html=1;align=center;verticalAlign=middle;resizable=0;points=[];" vertex="1" connectable="0" parent="TdN85WwoN8RoZoPRbgvp-80">
          <mxGeometry x="0.0481" y="2" relative="1" as="geometry">
            <mxPoint x="-1" as="offset" />
          </mxGeometry>
        </mxCell>
        <mxCell id="TdN85WwoN8RoZoPRbgvp-83" value="" style="endArrow=classic;html=1;rounded=0;entryX=0;entryY=0;entryDx=0;entryDy=0;" edge="1" parent="1" target="TdN85WwoN8RoZoPRbgvp-40">
          <mxGeometry width="50" height="50" relative="1" as="geometry">
            <mxPoint x="630" y="340" as="sourcePoint" />
            <mxPoint x="950" y="400" as="targetPoint" />
          </mxGeometry>
        </mxCell>
        <mxCell id="TdN85WwoN8RoZoPRbgvp-84" value="fidelity system" style="edgeLabel;html=1;align=center;verticalAlign=middle;resizable=0;points=[];" vertex="1" connectable="0" parent="TdN85WwoN8RoZoPRbgvp-83">
          <mxGeometry x="0.1487" y="2" relative="1" as="geometry">
            <mxPoint x="-1" as="offset" />
          </mxGeometry>
        </mxCell>
        <mxCell id="TdN85WwoN8RoZoPRbgvp-87" value="" style="endArrow=classic;html=1;rounded=0;entryX=0.5;entryY=0;entryDx=0;entryDy=0;exitX=0.477;exitY=1.014;exitDx=0;exitDy=0;exitPerimeter=0;" edge="1" parent="1" target="TdN85WwoN8RoZoPRbgvp-60">
          <mxGeometry width="50" height="50" relative="1" as="geometry">
            <mxPoint x="506.31999999999994" y="648.364" as="sourcePoint" />
            <mxPoint x="590" y="730" as="targetPoint" />
          </mxGeometry>
        </mxCell>
        <mxCell id="TdN85WwoN8RoZoPRbgvp-95" value="inheritance" style="edgeLabel;html=1;align=center;verticalAlign=middle;resizable=0;points=[];" vertex="1" connectable="0" parent="TdN85WwoN8RoZoPRbgvp-87">
          <mxGeometry x="0.0138" relative="1" as="geometry">
            <mxPoint as="offset" />
          </mxGeometry>
        </mxCell>
        <mxCell id="TdN85WwoN8RoZoPRbgvp-88" value="" style="endArrow=classic;html=1;rounded=0;entryX=0.5;entryY=0;entryDx=0;entryDy=0;exitX=0.476;exitY=1.006;exitDx=0;exitDy=0;exitPerimeter=0;" edge="1" parent="1" target="TdN85WwoN8RoZoPRbgvp-16">
          <mxGeometry width="50" height="50" relative="1" as="geometry">
            <mxPoint x="506.15999999999997" y="648.1560000000002" as="sourcePoint" />
            <mxPoint x="610" y="720" as="targetPoint" />
          </mxGeometry>
        </mxCell>
        <mxCell id="TdN85WwoN8RoZoPRbgvp-96" value="inheritance" style="edgeLabel;html=1;align=center;verticalAlign=middle;resizable=0;points=[];" vertex="1" connectable="0" parent="TdN85WwoN8RoZoPRbgvp-88">
          <mxGeometry x="0.0035" y="-3" relative="1" as="geometry">
            <mxPoint as="offset" />
          </mxGeometry>
        </mxCell>
        <mxCell id="TdN85WwoN8RoZoPRbgvp-89" value="" style="endArrow=classic;html=1;rounded=0;exitX=0.476;exitY=1.014;exitDx=0;exitDy=0;exitPerimeter=0;entryX=0.5;entryY=0;entryDx=0;entryDy=0;" edge="1" parent="1" target="TdN85WwoN8RoZoPRbgvp-36">
          <mxGeometry width="50" height="50" relative="1" as="geometry">
            <mxPoint x="506.15999999999997" y="648.364" as="sourcePoint" />
            <mxPoint x="810" y="790" as="targetPoint" />
          </mxGeometry>
        </mxCell>
        <mxCell id="TdN85WwoN8RoZoPRbgvp-97" value="inheritance" style="edgeLabel;html=1;align=center;verticalAlign=middle;resizable=0;points=[];" vertex="1" connectable="0" parent="TdN85WwoN8RoZoPRbgvp-89">
          <mxGeometry x="-0.1501" y="2" relative="1" as="geometry">
            <mxPoint as="offset" />
          </mxGeometry>
        </mxCell>
        <mxCell id="TdN85WwoN8RoZoPRbgvp-90" value="" style="edgeStyle=orthogonalEdgeStyle;rounded=0;orthogonalLoop=1;jettySize=auto;html=1;entryX=1;entryY=-0.154;entryDx=0;entryDy=0;entryPerimeter=0;" edge="1" parent="1" source="TdN85WwoN8RoZoPRbgvp-41">
          <mxGeometry relative="1" as="geometry">
            <mxPoint x="980" y="515.996" as="targetPoint" />
          </mxGeometry>
        </mxCell>
        <mxCell id="TdN85WwoN8RoZoPRbgvp-93" value="vector&amp;lt;Order*&amp;gt; orders" style="edgeLabel;html=1;align=center;verticalAlign=middle;resizable=0;points=[];" vertex="1" connectable="0" parent="TdN85WwoN8RoZoPRbgvp-90">
          <mxGeometry x="-0.0984" relative="1" as="geometry">
            <mxPoint as="offset" />
          </mxGeometry>
        </mxCell>
        <mxCell id="TdN85WwoN8RoZoPRbgvp-101" value="&lt;div&gt;&lt;span style=&quot;background-color: light-dark(rgb(251, 251, 251), rgb(21, 21, 21)); color: light-dark(rgb(102, 102, 102), rgb(149, 149, 149)); text-align: left;&quot;&gt;add coffee shop&lt;/span&gt;&lt;/div&gt;&lt;div&gt;&lt;span style=&quot;background-color: light-dark(rgb(251, 251, 251), rgb(21, 21, 21)); color: light-dark(rgb(102, 102, 102), rgb(149, 149, 149)); text-align: left;&quot;&gt;remove coffee coffee&lt;/span&gt;&lt;/div&gt;&lt;div style=&quot;color: rgb(102, 102, 102); font-size: 17px; text-align: left; background-color: rgb(251, 251, 251); line-height: 13.6px;&quot;&gt;&lt;font style=&quot;font-size: 12px; line-height: 9.6px;&quot;&gt;&lt;span style=&quot;white-space: pre;&quot;&gt;&#x9;&lt;/span&gt;select coffee_sho&lt;/font&gt;&lt;span style=&quot;font-size: 12px; background-color: light-dark(rgb(251, 251, 251), rgb(21, 21, 21)); color: light-dark(rgb(102, 102, 102), rgb(149, 149, 149));&quot;&gt;p&lt;/span&gt;&lt;/div&gt;&lt;div style=&quot;color: rgb(102, 102, 102); font-size: 17px; text-align: left; background-color: rgb(251, 251, 251); line-height: 13.6px;&quot;&gt;&lt;font style=&quot;font-size: 12px; line-height: 9.6px;&quot;&gt;&lt;span style=&quot;white-space: pre;&quot;&gt;&#x9;&lt;/span&gt;display coffee shops&lt;/font&gt;&lt;/div&gt;&lt;div style=&quot;color: rgb(102, 102, 102); font-size: 17px; text-align: left; background-color: rgb(251, 251, 251); line-height: 13.6px;&quot;&gt;&lt;font style=&quot;font-size: 12px; line-height: 9.6px;&quot;&gt;&lt;span style=&quot;white-space: pre;&quot;&gt;&#x9;&lt;/span&gt;generate daily reports&lt;/font&gt;&lt;/div&gt;&lt;div style=&quot;color: rgb(102, 102, 102); font-size: 17px; text-align: left; background-color: rgb(251, 251, 251); line-height: 13.6px;&quot;&gt;&lt;font style=&quot;font-size: 12px; line-height: 9.6px;&quot;&gt;&lt;span style=&quot;white-space: pre;&quot;&gt;&#x9;&lt;/span&gt;display daily reports&lt;/font&gt;&lt;/div&gt;&lt;div style=&quot;color: rgb(102, 102, 102); font-size: 17px; text-align: left; background-color: rgb(251, 251, 251); line-height: 13.6px;&quot;&gt;&lt;font style=&quot;font-size: 12px; line-height: 9.6px;&quot;&gt;vector&amp;lt;CoffeeShop&amp;gt;coffee_shop&lt;/font&gt;&lt;/div&gt;" style="rounded=0;whiteSpace=wrap;html=1;strokeColor=#FFFFFF;" vertex="1" parent="1">
          <mxGeometry x="520" y="160" width="190" height="120" as="geometry" />
        </mxCell>
        <mxCell id="TdN85WwoN8RoZoPRbgvp-102" value="" style="endArrow=classic;html=1;rounded=0;" edge="1" parent="1">
          <mxGeometry width="50" height="50" relative="1" as="geometry">
            <mxPoint x="880" y="207" as="sourcePoint" />
            <mxPoint x="630" y="304" as="targetPoint" />
          </mxGeometry>
        </mxCell>
        <mxCell id="TdN85WwoN8RoZoPRbgvp-105" value="" style="endArrow=classic;html=1;rounded=0;exitX=0.486;exitY=0.991;exitDx=0;exitDy=0;exitPerimeter=0;entryX=0.25;entryY=0;entryDx=0;entryDy=0;" edge="1" parent="1" target="TdN85WwoN8RoZoPRbgvp-64">
          <mxGeometry width="50" height="50" relative="1" as="geometry">
            <mxPoint x="897.76" y="545.766" as="sourcePoint" />
            <mxPoint x="1010" y="556" as="targetPoint" />
          </mxGeometry>
        </mxCell>
        <mxCell id="TdN85WwoN8RoZoPRbgvp-106" value="vector&amp;lt;OrderedProduct*&amp;gt; ordered_products&lt;div&gt;add_product&lt;/div&gt;" style="edgeLabel;html=1;align=center;verticalAlign=middle;resizable=0;points=[];" vertex="1" connectable="0" parent="TdN85WwoN8RoZoPRbgvp-105">
          <mxGeometry x="0.0108" relative="1" as="geometry">
            <mxPoint y="1" as="offset" />
          </mxGeometry>
        </mxCell>
        <mxCell id="TdN85WwoN8RoZoPRbgvp-108" value="" style="endArrow=classic;html=1;rounded=0;entryX=-0.011;entryY=0.97;entryDx=0;entryDy=0;entryPerimeter=0;exitX=1;exitY=0.5;exitDx=0;exitDy=0;" edge="1" parent="1">
          <mxGeometry width="50" height="50" relative="1" as="geometry">
            <mxPoint x="960.0000000000005" y="178" as="sourcePoint" />
            <mxPoint x="1178.2399999999998" y="241.22000000000003" as="targetPoint" />
          </mxGeometry>
        </mxCell>
        <mxCell id="TdN85WwoN8RoZoPRbgvp-110" value="vector&amp;lt;DailyReport&amp;gt;daily_reports" style="edgeLabel;html=1;align=center;verticalAlign=middle;resizable=0;points=[];" vertex="1" connectable="0" parent="TdN85WwoN8RoZoPRbgvp-108">
          <mxGeometry x="-0.0891" y="-3" relative="1" as="geometry">
            <mxPoint as="offset" />
          </mxGeometry>
        </mxCell>
        <mxCell id="TdN85WwoN8RoZoPRbgvp-114" value="&lt;span style=&quot;font-weight: 700; text-wrap-mode: wrap;&quot;&gt;abstract class&lt;/span&gt;" style="text;html=1;align=center;verticalAlign=middle;resizable=0;points=[];autosize=1;strokeColor=none;fillColor=none;" vertex="1" parent="1">
          <mxGeometry x="430" y="610" width="160" height="30" as="geometry" />
        </mxCell>
        <mxCell id="TdN85WwoN8RoZoPRbgvp-115" value="&lt;b style=&quot;text-align: left; text-wrap-mode: wrap; line-height: 42px;&quot;&gt;&amp;nbsp;class&lt;/b&gt;" style="text;html=1;align=center;verticalAlign=middle;resizable=0;points=[];autosize=1;strokeColor=none;fillColor=none;" vertex="1" parent="1">
          <mxGeometry x="700" y="603" width="60" height="60" as="geometry" />
        </mxCell>
        <mxCell id="TdN85WwoN8RoZoPRbgvp-117" value="&lt;b style=&quot;text-align: left; text-wrap-mode: wrap; line-height: 24px;&quot;&gt;class&lt;/b&gt;" style="text;html=1;align=center;verticalAlign=middle;resizable=0;points=[];autosize=1;strokeColor=none;fillColor=none;" vertex="1" parent="1">
          <mxGeometry x="1195" y="663" width="50" height="40" as="geometry" />
        </mxCell>
      </root>
    </mxGraphModel>
  </diagram>
</mxfile>
